<svg version="1" xmlns="http://www.w3.org/2000/svg" width="600" height="600" viewBox="0 0 450.000000 450.000000"><path d="M196.7 57.6c-.1.1-6.7.5-14.7.8-21.2.9-39.1 1.7-42.5 2.1-3 .2-15.6 1.5-20.5 2-1.4.2-4.5.6-7 .9-6.4.9-10.8 1.4-16 2.1-4.3.5-6.6.9-12 2.1-4.1.8-12.3 2.3-16 2.9-6.6 1-20.5 4.7-23.3 6.2-2.7 1.3-3.3 4.1-.8 3.6.6-.2 1.1.2 1.1.8 0 .7 1.7 1 4.4.8 2.4-.2 4.2-.1 3.9.3-.2.5-.1.8.4.9 3.1.3 14.7 0 19.1-.4 3.5-.4 5.1-.3 4.6.4-.4.7 3.6.8 12.7.4 7.4-.4 25.9-.8 41.3-.8l27.8-.2-.6 18c-1 26.6-.6 91 .6 96.6.2.8-5 2.9-13.7 5.6-7.7 2.4-15.1 4.9-16.5 5.5-1.4.7-2.8 1.2-3.2 1.2-.3.1-1 .4-1.4.8-.4.5-1.6.8-2.6.8s-1.8.5-1.8 1.1c0 .5.6.7 1.3.3.6-.4.8-.3.4.1-1.3 1.5-6 1.8-5.1.4.4-.8.3-.9-.5-.5-.6.4-.9 1.1-.7 1.5.3.4-2.2 1.3-5.5 2-3.2.6-5.9 1.5-5.9 2 0 .4-.6.8-1.2.8-2.1.1-14.1 3.4-16.1 4.4-1 .6-1.5 1.5-1 2.2.4.7 0 .6-1-.2s-2-1.1-2.4-.7c-.3.3 0 .6.7.6 1 0 1.1.3.3 1.1-1.8 1.8-.4 3.8 3.6 5.5 3.4 1.5 10.1 1.4 19.1-.1 1.4-.2 4.2-.6 6.2-.9 2.1-.3 5.7-1 8-1.5 2.4-.5 6.1-1.2 8.3-1.5 4.4-.7 6.7-1.1 10.5-2 1.4-.3 3.6-.8 5-1 1.4-.3 5.6-1.1 9.5-2 3.8-.8 7-1.4 7.1-1.3.4.6 2.4 12.9 2.8 17.2.2 2.7.9 8.4 1.6 12.5 1.2 8.1 1.6 11.3 2.4 20.3.3 3.1.8 6.2 1.2 6.8.6 1 1.2 5.6 1.6 12.1.1 1.6.6 2.8 1.1 2.8.4 0 .6.4.3.8-.2.4-.1 1.4.4 2.2.5.9.4 2-.3 2.9-.8.9-.8 1.5-.2 1.8.6.2 1 1.9.9 3.8-.1 1.9.1 3.5.5 3.5s.8.6.8 1.2c.2 5.1 1.6 11.3 2.6 12 .7.5.8.8.1.8-.9 0-1.2 3.8-.4 4.7.2.2.3.6.5 1 .1.5.5 1.6.8 2.5.4 1 .9 2.5 1.2 3.4.3.8.9 1.3 1.3 1 .5-.3.9.1.9.8 0 .8-.6 1.2-1.2 1-.8-.3-1 .5-.7 2.6.3 1.9 1 3 2.1 3 1.2 0 1.3.2.3.9-1.4.9-.9 7 1 12 1 2.6 1.4 4.2 2.3 9.5.3 1.6 1 3.7 1.5 4.7.6 1 1.1 2.9 1.2 4.3.1 1.3.5 2.3.9 2 .4-.2.9.3 1.3 1.1.3.8.1 1.5-.5 1.5s-.7.5-.4 1c.4.6.9 2.3 1.1 3.8.3 1.5 1.1 3.2 1.9 3.8 1.7 1.3 2.1 2.9.5 1.9-1.4-.9-1.3-.2 1.4 5.8 1.3 3 3 5.8 3.7 6.3 1.1.6 1.2.4.4-.7-.5-.8-.2-.6.8.4 2.1 2.4 3.3 1.7 1.8-1.1-1.3-2.4-.3-3.6 1.8-2 1.3 1 1.4 1 .4-.2-.8-.9-.9-1.9-.2-3.2.7-1.3.6-1.8-.2-1.8-.7 0-.9-.3-.6-.7.4-.3.2-1.2-.5-2-.9-1.1-.7-1.2.8-.7 1.9.7 1.9.7 0-1.4-1.3-1.5-1.5-2.2-.6-2.2s.8-.7-.4-2.5c-1.8-2.8-2.1-5.5-.5-5.5.5 0 .8-.4.5-.9-.6-.9-4.6-20.6-4.6-21.9.1-1.5 2.9 4.4 3 6.1 0 1 .4 1.6.9 1.3.5-.4 1.1-.1 1.3.6.3.9 1 .8 2.3-.5 1.7-1.8 1.7-2.1-.4-9.2-1.1-4-2.1-7.9-2.1-8.6 0-.7-1.2-2.6-2.7-4.2-1.7-1.7-2.1-2.6-1.1-2.2.9.4 1.9 1.3 2.2 2.1.3.8 1.1 1.4 1.7 1.4.8 0 .8-.4-.1-1.5-.8-.9-.8-1.5-.2-1.5 1.1 0 2.3 2.9 2.8 6.5.6 5 4.6 17.1 6 18.5.9.8 1.4 1 1.1.4-.3-.6-.9-3.3-1.2-6-.8-6.4-1.1-7.9-2.9-14.3-1.1-4.1-1.2-5.7-.3-7.2.9-1.4.9-2.1 0-3-.9-.9-1-.6-.6 1.2.3 1.3.3 2.2 0 1.9-1.1-1-1.6-6.1-.5-5.4.6.4.8-.1.5-1.2-1.7-5.9-2.6-10.4-2.9-14.2-.1-2.3-.6-4.2-1.1-4.2-.4 0-.5-.5-.2-1s.2-1-.4-1c-.5 0-1-.8-1-1.8-.1-.9-.4-4.2-.6-7.2-.3-3-.7-9-.8-13.2-.2-4.3-.6-8-1-8.4-.4-.4-.2-1.3.4-2 .7-.8.7-1.9.1-3.1-.5-1-1-4-1.1-6.7-.1-2.8-.4-5.3-.7-5.7-.2-.4-.1-1 .4-1.3.5-.3.9 0 1 .7.1.7.5 3.3 1 5.9.5 2.9.5 4.9-.1 5.1-.5.1-.2.8.6 1.5 1.3 1.1 1.5.6 1.7-3 .4-9.9.3-13.6-.4-18.3-.8-5.3-1.7-13-1.8-15.5 0-.8-.5-2.1-1.1-2.8-2-2.5.4-1.1 6.5 4 3.4 2.9 7 5.9 7.8 6.8 2.9 2.7 6.3 5.4 15 11.8 4.7 3.4 9.2 6.8 10 7.5 4.5 3.6 8.8 6.6 11.5 8 1.7.8 4.5 2.9 6.2 4.6 1.8 1.7 3.5 3.1 3.8 3.1.3 0 3.3 2 6.7 4.5 9.6 6.9 10.1 7.3 16.4 11.5 5.4 3.5 6 3.7 7.3 2.2 1-1.3 1.2-1.3.9-.2-.6 1.8 2.7 5.4 4.1 4.5.6-.3 1.1.1 1.1.9 0 1.4 22.7 15.5 40 24.9 4.1 2.2 9.8 5.3 12.5 6.9 8.3 4.7 44 22.4 49 24.4 4.6 1.7 4.8 1.7 6.1-.1 1.7-2.3 1.8-3.8.2-3.3-.7.3-2.6-.9-4.4-2.6-6-5.8-6.5-6.1-7.1-3.7-.3 1.2-1.1 2.1-1.8 2.1-.8 0-2 .3-2.9.6-1.2.5-1.6 0-1.6-1.8 0-1.3-.6-3-1.2-3.7-1.1-1.2-1-1.3.6-.7 1.4.5 1.7.3 1.2-1.1-.7-1.7-.6-1.7 1.1 0 1.1 1.1 1.4 2 .8 2.5-.5.4-1.1 1.3-1.3 2.1-.2 1.1 0 1.2 1.1.3.8-.7 1.7-.9 2-.6.4.4.4-.4.2-1.7-.3-1.3-1.9-3.6-3.7-5-2.8-2.3-3-2.9-1.9-4.3.9-1.1 1-1.6.2-1.6-.6 0-1.1-.5-1.1-1.1 0-.5.5-.7 1.2-.3.7.4.8.3.4-.4s-1.2-1.2-1.8-1.2c-.5 0-2.3-1.1-4-2.5-1.8-1.5-2.4-2.5-1.5-2.5.8 0 1.8.7 2.1 1.6.3.8 1 1.3 1.4 1 .5-.3 1.8.1 2.8.9 2.4 1.8 3.1 1.8 3.1 0 0-.8-.4-1.2-.9-.9-1.4.9-3.7-1.6-3.1-3.4.4-1.3.3-1.4-.5-.4-.7 1.1-1.6.9-4.3-.7-1.9-1.2-2.8-2.1-2.1-2.1.6 0 1.2-.5 1.2-1.1 0-.6-.7-.8-1.6-.5-.8.3-1.2.2-.9-.4.3-.6-.2-1-1.1-1-1.4 0-1.5-.3-.6-1.2.9-.9 1.7-.6 3.7 1.2 1.3 1.2 2.2 2.8 1.8 3.3-.4.6 0 .8.9.4 2-.7 6.1 2.1 5.2 3.5-.4.7-.2.8.4.4.7-.4 2.3.4 3.7 1.8 1.4 1.4 2.5 2.1 2.5 1.5 0-.6.5-.7 1-.4.6.3 1 0 1-.7 0-1.3-6.2-5.8-8-5.8-.5 0-1-.4-1-.9s-.8-1.1-1.7-1.5c-1-.3-3.9-2.1-6.5-4.1-5-3.7-5.1-3.6-5.1 1.7 0 1-.5 1.4-1.4 1.1-1.2-.5-1.2-.7-.1-1.4 1.4-.9.3-1.3-3.2-1-1.1 0-1.1-.1-.2-.5.9-.4 0-1.7-2.7-4.1-2.3-1.9-3.9-3.9-3.5-4.4.3-.5-.1-.9-.8-.9-.7 0-3.3-1.6-5.7-3.5-4.1-3.3-5.4-3.9-7.3-3.6-.5 0-.8-.6-.8-1.5 0-1.3-.4-1.1-1.8.7-1.5 1.7-2.1 1.9-2.7.9-.5-.8-.4-1.1.2-.7.6.4 1.5-.5 2.2-1.9.6-1.4.7-2.3.2-2-.4.3-2.1-.5-3.7-1.9-1.5-1.3-3.1-2.2-3.6-1.9-.4.3-.8-.2-.8-1 0-.9-.6-1.6-1.3-1.6-.8 0-2.2-.9-3.2-2s-2.4-2-3.2-2c-.7 0-1.3-.5-1.3-1 0-.6-.5-1-1-1-.6 0-3.5-1.8-6.4-4-2.9-2.2-5.6-4-5.9-4-1.8 0-50.1-35.9-65.2-48.4-2.7-2.3-9-7.3-14-11-4.9-3.8-10.2-8.1-11.7-9.4l-2.8-2.6 20.3-7.2c11.1-3.9 22.9-8.4 26.2-9.8 3.3-1.5 11.6-5 18.5-7.8 12.5-5 44.2-20.6 44.8-22.1.2-.4 1-.7 1.7-.7 1.5 0 25.5-14.4 33-19.9 15.3-11 27.5-21.7 27.5-24 0-.8.3-1.1.7-.8.8.8 3.3-1.1 3.3-2.5 0-.6-.8-.4-1.7.3-1.5 1.1-1.6 1.1-.6-.1.7-.7 2.3-1.5 3.5-1.7 1.3-.2 2.8-.9 3.5-1.6 1.2-1.2 1.4-1.7 2.8-9.5.4-2.3 1.3-4.2 1.9-4.2.7 0 .7-.3-.1-.8-1.3-.8-1.2-4.5.2-7.5.8-1.9.4-2.7-1.7-3.1-1.7-.3-9-2.5-14.8-4.3-2.5-.8-5.2-1.6-6-1.9-.8-.2-4.9-1.2-9-2.3-4.1-1.1-8.6-2.2-10-2.5-1.4-.2-10.4-2-20-4-9.6-1.9-19.5-3.8-22-4.1-9.7-1.3-11.7-1.5-18.5-2.1-3.8-.4-7.9-.7-9-.9-2.5-.2-17.3-1.5-24.5-2.2-5.3-.4-71.9-1.1-72.3-.7zm26.4 26.8c5.8.4 11.4.8 12.5 1 1 .2 4.8.7 8.4 1 3.6.4 8.1.9 10 1.1 1.9.3 6.9.7 11 1 4.1.3 8.2.8 9 1 .8.2 4.9.7 9 1 4.1.4 7.7.8 8 1 .3.2 3.4.6 7 1 7.6.8 9.9 1.1 16 1.9 2.5.4 6.3.9 8.5 1.2 5.6.7 12.8 1.9 24 3.9 1.7.3 5.8 1 9.3 1.6l6.3 1.1-3.5 2.4c-1.9 1.3-3.8 2.4-4.2 2.4-.5 0-2.5 1.1-4.6 2.5-21.6 14.2-54.7 33.6-67.5 39.5-30.2 14.1-56.2 25.9-58.3 26.5-1.4.4-3.8 1.3-5.5 2.1-13.2 5.8-21.5 8.3-21.5 6.4 0-.6.4-.9.9-.6.5.3 1.2-.1 1.5-1 .5-1.2.2-1.5-.9-1-1.1.4-1.4.2-.8-.7.9-1.4 1-3.4 1.4-24.2.1-11.9.4-14.5.9-10l.7 6 .2-5.5c.8-14.4.7-18.7-.4-20.5-.6-1.1-1-2.6-.9-3.3.1-.6.2-3.5.3-6.4.1-5.5 1.2-6.2 1.3-.8.1 1.7.4 2.6.8 2 .4-.7.7-7.8.6-15.8-.2-19.8-.5-19 5.2-18.7 2.6.2 9.5.6 15.3.9zm-22.5 45.1c.1.8-.2 1.5-.6 1.5-.5 0-.8-.9-.7-2 .1-2.1 1-1.8 1.3.5zm-4.1 41.4c.3.5.2 1.2-.3 1.5-.5.3-.9-.1-.9-.9 0-1.7.3-1.9 1.2-.6zM118 216c-.8.5-2.1 1-2.9 1-.8 0-2.2.6-3 1.4-2 1.7-7.5 3.1-6.6 1.6.3-.5 1.7-1 3.1-1 1.3 0 2.4-.4 2.4-.9 0-1 4.5-2.9 7-3 1.3-.1 1.3 0 0 .9zm82.7 48.2c-.3.7-.5.2-.5-1.2s.2-1.9.5-1.3c.2.7.2 1.9 0 2.5zm75.9 4.3c-1.1.8-2.5 1.5-3 1.5-.6-.1 0-.7 1.4-1.5 3.2-1.9 4-1.8 1.6 0zm-12.1 6.5c.3.5.1 1-.4 1-.6 0-1.1-.5-1.1-1 0-.6.2-1 .4-1 .3 0 .8.4 1.1 1zm53.9 8.1c.4.4-.3.6-1.7.6-2 0-2.3-.2-1.4-1.2.7-.7 1.4-1 1.7-.7.3.4.9 1 1.4 1.3zm-145.7 2.4c0 .8-.4 1.2-.9.9-.5-.3-.6-1-.3-1.5.9-1.3 1.2-1.1 1.2.6zm1.9 6.4c.1 5.9 1.3 15.4 2.3 18.8.5 1.8.6 3.5.2 3.7-.4.3-.8 0-.9-.7-.1-2.1-1-5.5-1.9-7.4-.5-1-.9-2.5-.8-3.3.1-.8-.4-2.1-.9-2.9-.9-1.2-.8-1.3.3-.6 1.4.8 1.3-1-.3-9.1-.2-1.2.1-2.1.8-2.1.6 0 1.2 1.6 1.2 3.6zm152.4.1c0 .5-.2 1-.4 1-.3 0-.8-.5-1.1-1-.3-.6-.1-1 .4-1 .6 0 1.1.4 1.1 1zm-30.6 4.2c-.3.4-.9.8-1.5.8-.5 0-.9-.4-.9-.8 0-.5.7-.9 1.5-.9s1.2.4.9.9zm-102.7 12c-.3.8-.6.5-.6-.6-.1-1.1.2-1.7.5-1.3.3.3.4 1.2.1 1.9zm-5.6-.2c.1.5.2 1.6.3 2.2 0 .7 1.3 1.3 2.7 1.3 1.4-.1 2.6.5 2.6 1.1 0 .9-.6 1-1.7.4-1-.5-1.9-.8-2.1-.5-.3.2-1.5-.5-2.9-1.5-1.4-1.1-1.9-2-1.2-2s1-.5.7-1c-.3-.6-.1-1 .4-1 .6 0 1.2.4 1.2 1zm161.9-.6c0 .2-.7.6-1.5 1-.8.3-1.5.1-1.5-.4 0-.6.7-1 1.5-1s1.5.2 1.5.4zm2.1 2.9c-1 .9-1.1.8-.5-.6.3-1 .9-1.5 1.2-1.2.3.3 0 1.1-.7 1.8zm-14.8-.6c-.7.2-1.3 1.2-1.3 2 0 .9-.3 1.4-.6 1-1-1 .4-3.7 1.8-3.6 1 0 1 .2.1.6zm5.2 2.3c.3.5.1 1-.4 1-.6 0-1.1-.5-1.1-1 0-.6.2-1 .4-1 .3 0 .8.4 1.1 1zm-147.7 6.5c-.3.3-.9-.2-1.2-1.2-.6-1.4-.5-1.5.5-.6.7.7 1 1.5.7 1.8zm149-1.1c-.7.8-1.5 1.2-1.7 1.1-.5-.6 1-2.5 2-2.5.5 0 .4.6-.3 1.4zm29.2.6c0 .5-.5 1-1.1 1-.5 0-.7-.5-.4-1 .3-.6.8-1 1.1-1 .2 0 .4.4.4 1zm-14.5 4.3c.6-.4.1.2-.9 1.5-1.1 1.2-2.2 2-2.5 1.7-.3-.4.1-1 .9-1.5 1.7-1.1.9-1.3-1.4-.4-.9.3-1.4 1-1.1 1.4.3.5 0 1.2-.6 1.6-.8.5-.9.3-.4-.6.6-1 .4-1.2-1.1-.6-1 .4-1.5.4-1.1 0 .4-.4.1-1.4-.6-2.3-1.1-1.4-1-1.5.7-.1 1.5 1.1 2 1.2 2.3.2.3-.6 1.1-1.2 1.9-1.2.8 0 1.1-.7.8-1.8-.3-.9.1-.7.8.6.8 1.2 1.8 1.9 2.3 1.5zm9 .5c-.3.3-1.1 0-1.8-.7-.9-1-.8-1.1.6-.5 1 .3 1.5.9 1.2 1.2zm-171.8 1.4c-.3.8-.6.5-.6-.6-.1-1.1.2-1.7.5-1.3.3.3.4 1.2.1 1.9zm150.8.9c-.6 2.9-.7 3-3 1.2-2-1.5-2-1.5.3-.8 1.2.3 2.2.3 2.1-.2-.2-1.2 0-2.3.5-2.3.3 0 .3 1 .1 2.1zm-164.7 3.1c-.1.7.3 2.3 1 3.5.8 1.5.9 2.3.2 2.3-.5 0-1-.7-1-1.5 0-.9-.7-1.8-1.5-2.1-.8-.4-1.5-1-1.5-1.6 0-.5.5-.6 1-.3.6.3 1 .1 1-.4 0-.6.2-1.1.5-1.1s.5.6.3 1.2zm207.6.3c1.1.8 1.8 1.7 1.5 1.9-.2.2-1.5-.4-2.8-1.5-2.7-2.2-1.5-2.6 1.3-.4zm-192.7 1.7c-.3.8-.6.5-.6-.6-.1-1.1.2-1.7.5-1.3.3.3.4 1.2.1 1.9zM358 329c0 .5-.5 1-1.1 1-.5 0-.7-.5-.4-1 .3-.6.8-1 1.1-1 .2 0 .4.4.4 1zm5.7 5.2c-.3.8-.6.5-.6-.6-.1-1.1.2-1.7.5-1.3.3.3.4 1.2.1 1.9zm-170.6 1.5c0 1.6.2 3.5.4 4.4 1.5 8 1.6 8.3.6 6.8-1.9-2.9-3.6-13.9-2.2-13.9.6 0 1.1 1.2 1.2 2.7zm182.4-1.7c-.3.5-1.2 1-1.8 1-.7 0-.6-.4.3-1 1.9-1.2 2.3-1.2 1.5 0zm-176.8 1.6c-.3.3-1.2.4-1.9.1-.8-.3-.5-.6.6-.6 1.1-.1 1.7.2 1.3.5zm182.8 2.4c.3.6-.1.7-.9.4-1.8-.7-2.1-1.4-.7-1.4.6 0 1.3.4 1.6 1zm-8.5 1.5c0 .2-.7.5-1.5.9-.9.3-1.5 0-1.5-.9s.6-1.2 1.5-.9c.8.4 1.5.7 1.5.9zm-186 3c0 .9-.6 1.2-1.6.8-1.3-.5-1.3-.7-.2-1.4 1.7-1.1 1.8-1.1 1.8.6zm195 2c0 1-1.6.4-4-1.6l-2.5-2 3.3 1.6c1.7.8 3.2 1.8 3.2 2zm15.5 7.5c.3.5.2 1-.4 1-.5 0-1.3-.5-1.6-1-.3-.6-.2-1 .4-1 .5 0 1.3.4 1.6 1zm-7.1.9c.4.5-.3.7-1.4.4-2.3-.6-2.6-1.3-.6-1.3.8 0 1.7.4 2 .9zm4 .9c.3.5-.1.9-.9.9s-1.2-.4-.9-.9c.3-.4.7-.8.9-.8.2 0 .6.4.9.8zM192 365.5c1.1 1.3 1 1.4-.4.9-.9-.3-1.6-1-1.6-1.5 0-1.3.6-1.1 2 .6zm7 9.9c0 .8-.9 1.2-2.2 1.1-3.3-.4-3.5-.5-1.3-1.5 2.9-1.2 3.5-1.2 3.5.4zm-2.5 4.6c-.3.5-1 1-1.6 1-.5 0-.9-.5-.9-1 0-.6.7-1 1.6-1 .8 0 1.2.4.9 1zm2.2 5.5c0 2-.4 1.9-1.7-.5-.8-1.5-.8-1.8.3-1.4.8.3 1.4 1.1 1.4 1.9zm-2 10c0 .8-.4 1.2-.9.9-.5-.3-.6-1-.3-1.5.9-1.3 1.2-1.1 1.2.6z"/><path d="M404.3 89.6c0 1.7.2 2.2.7 1.3.5-.6.6-1.8.3-2.6-.8-1.9-1-1.6-1 1.3zM198 277.5c0 .2.7.8 1.5 1.5 1.2 1 1.5 1 1.5-.2 0-.8-.7-1.5-1.5-1.5s-1.5.1-1.5.2zM202.2 280.4c.2 1-.3 2.1-1.1 2.4-.9.3-1.1 0-.6-.8.5-.9.4-1.1-.4-.6-.7.5-1 1.9-.6 3.4.3 1.5.7 3.8 1 5.2.9 5 3 11 3.7 11 .8 0 .4-3.2-1.2-8.2-.9-2.8-.7-5.9.5-7.8.4-.6-.1-.7-1.2-.3-1.7.6-1.7.5-.1-1.3 1.2-1.4 1.4-2.4.7-3.4-.8-1.2-.9-1.2-.7.4zM204 303.9c0 1.1.4 2.2.9 2.5.4.3.6-.6.3-1.9-.5-3-1.2-3.3-1.2-.6zM357 306.9c1.9 1 3.3 2.1 3 2.4-.6.7 4 5.7 5.3 5.7.5 0-.1-.9-1.4-2-1.6-1.3-1.9-1.9-1-2 2.7 0-5.4-6-8.1-6-.7 0 .3.8 2.2 1.9zM365 311.7c0 .6.7 1.4 1.6 1.7.8.3 1.2 1.1.8 1.7-.5.8-.3.9.6.4 1-.6 1.2-.4.6 1.1s-.5 1.7.6.6c1-1 .7-1.7-1.5-3.9-1.5-1.5-2.7-2.3-2.7-1.6zM393.5 333c-.3.5-.1 1 .4 1 .6 0 1.1-.5 1.1-1 0-.6-.2-1-.4-1-.3 0-.8.4-1.1 1zM385.7 336.9c-1.6 1.7-1.6 1.9.2 3.5 1.1 1 2.5 1.5 3.2 1 .7-.4 1-.3.5.4-.8 1.3 1 2.6 2.5 1.6.8-.4.1-1.6-1.8-3.3-1.6-1.4-2.8-3.2-2.6-3.9.6-1.6.2-1.5-2 .7zM397.8 336.7c.7.3 1.6.2 1.9-.1.4-.3-.2-.6-1.3-.5-1.1 0-1.4.3-.6.6zM206.5 337.9c-.3.5-.2 1.2.3 1.5.5.3.9-.1.9-.9 0-1.7-.3-1.9-1.2-.6zM401 337.8c0 1.1 8.2 7.8 9.3 7.4.4-.1.7.2.7.6 0 1.5 4.8 3.3 5.6 2.1.3-.6.4-1.1.3-1.2-.2-.2-1.3-.9-2.4-1.7-1.9-1.4-1.9-1.4-.6.2.7 1 .9 1.8.3 1.8-1.5 0-3.3-2.6-2.4-3.6.4-.4-.1-.2-1 .5-1.7 1.3-2.3.8-1.8-1.4.1-.6-.1-.7-.5-.3-.6.6-2.7-.8-6.1-4-.8-.7-1.4-.9-1.4-.4zM406.7 348.1c.7.7 1.5 1 1.8.7.3-.3-.2-.9-1.2-1.2-1.4-.6-1.5-.5-.6.5zM211.4 359.1c-.3.6-.2 1.5.3 2s.9.1.9-1.1c0-2.3-.2-2.4-1.2-.9zM199.5 364.8c.6.4 1.2 2 1.4 3.7.1 1.6.5 3.2.8 3.5.3.3.4-.9.1-2.7-.2-1.8-.1-3 .4-2.7.4.3.8 1.2.8 2 0 1.6.2 1.6 2.4.8 2-.8 2.1-2.4.1-2.4-.8 0-1.4-.5-1.2-1.2.1-.6-1.1-1.3-2.8-1.4-1.6-.2-2.5 0-2 .4zM209.5 366c.3.5.8 1 1.1 1 .2 0 .4-.5.4-1 0-.6-.5-1-1.1-1-.5 0-.7.4-.4 1z"/></svg>